<?xml version="1.0"?>

<svg xmlns="http://www.w3.org/2000/svg" xmlns:svg="http://www.w3.org/2000/svg" version="1.1" id="svg1" width="422.5826721191406" height="402.6093444824219" viewBox="0 0 422.58267 402.60934">
  <defs id="defs1">
    <clipPath clipPathUnits="userSpaceOnUse" id="clipPath3">
      <path d="M 0,301.957 H 316.937 V 0 H 0 Z" transform="translate(-201.1582,-137.53171)" id="path3"></path>
    </clipPath>
    <clipPath clipPathUnits="userSpaceOnUse" id="clipPath5">
      <path d="M 0,301.957 H 316.937 V 0 H 0 Z" transform="translate(-215.24361,-191.20231)" id="path5"></path>
    </clipPath>
    <clipPath clipPathUnits="userSpaceOnUse" id="clipPath7">
      <path d="M 0,301.957 H 316.937 V 0 H 0 Z" transform="translate(-160.82841,-26.038698)" id="path7"></path>
    </clipPath>
    <clipPath clipPathUnits="userSpaceOnUse" id="clipPath9">
      <path d="M 0,301.957 H 316.937 V 0 H 0 Z" transform="translate(-287.7055,-152.0657)" id="path9"></path>
    </clipPath>
    <clipPath clipPathUnits="userSpaceOnUse" id="clipPath11">
      <path d="M 0,301.957 H 316.937 V 0 H 0 Z" transform="translate(-28.294801,-137.9149)" id="path11"></path>
    </clipPath>
    <clipPath clipPathUnits="userSpaceOnUse" id="clipPath13">
      <path d="M 0,301.957 H 316.937 V 0 H 0 Z" transform="translate(-37.278401,-151.5487)" id="path13"></path>
    </clipPath>
  </defs>
  <g id="g1">
    <circle style="fill:#000000;stroke-width:0.989626" id="path14" cx="211" cy="201.5" r="185"></circle>
    <path id="path2" d="m 0,0 c -0.524,-18.509 -7.436,-25.898 -26.061,-25.292 0,-1.628 0.067,-4.101 0.067,-5.385 h -12.13 l 1.818,2.331 v 55.328 l -2.716,-6.515 -0.105,-0.245 c -4.837,-11.213 -9.685,-22.425 -14.65,-33.929 h -7.821 c -5.151,12.04 -10.303,24.092 -15.466,36.143 l -1.096,2.226 c 0,0 -1.2,-14.499 -1.643,-20.571 -1.154,-15.851 -7.366,-20.909 -23.567,-18.823 v 7.296 c 9.94,0 12.867,-0.408 13.601,12.506 0.805,10.769 0.735,21.609 1.026,32.425 0.07,2.319 0.012,4.639 0.012,7.389 h 13.403 c 5.758,-14.137 11.609,-28.473 18.008,-44.173 6.62,15.583 12.715,29.919 18.834,44.302 h 12.262 v -62.776 c 8.298,-0.547 15.804,1.178 15.944,11.761 0.233,17.284 0.058,34.581 0.058,53.159 C -6.201,43.754 -3.03,41.073 0.07,38.439 0.07,25.502 0.373,12.751 0,0" style="fill:#ffffff;fill-opacity:1;fill-rule:nonzero;stroke:none" transform="matrix(1.3333333,0,0,-1.3333333,268.21093,219.23373)" clip-path="url(#clipPath3)"></path>
    <path id="path4" d="m 0,0 c 0.086,-5.667 -3.873,-10.012 -9.343,-10.254 -5.713,-0.253 -10.642,4.693 -10.577,10.612 0.062,5.543 4.244,9.757 9.78,9.854 C -4.484,10.311 -0.089,5.884 0,0" style="fill:#ffffff;fill-opacity:1;fill-rule:nonzero;stroke:none" transform="matrix(1.3333333,0,0,-1.3333333,286.99147,147.67293)" clip-path="url(#clipPath5)"></path>
    <path id="path6" d="m 0,0 c -67.64,0 -123.55,57.26 -123.55,125.51 0,68.25 56.99,123.58 124.63,123.58 67.63,0 122.47,-55.33 122.47,-123.58 C 123.55,55.323 67.63,0 0,0 m -1.18,261.46 c -74.36,0 -137.01,-60.82 -137.01,-135.85 0,-75.03 61.47,-137.98 135.83,-137.98 74.36,0 135.83,62.95 135.83,137.98 0,75.03 -60.28,135.85 -134.65,135.85" style="fill:#ffffff;fill-opacity:1;fill-rule:nonzero;stroke:none" transform="matrix(1.3333333,0,0,-1.3333333,214.43787,367.89107)" clip-path="url(#clipPath7)"></path>
    <path id="path8" d="m 0,0 c 2.364,33.521 -11.895,67.499 -36.318,90.373 -81.359,77.394 -218.587,23.131 -219.502,-90.589 -0.424,-65.263 59.778,-133.858 127.066,-131.503 C -58.211,-129.779 -3.691,-68.856 0,0 m 3.122,-0.224 c -2.388,-34.131 -16.612,-67.518 -40.927,-91.741 -29.627,-30.304 -74.151,-47.869 -116.366,-39.03 -33.691,7.131 -62.177,30.351 -81.051,58.544 -24.683,35.354 -30.795,82.495 -13.836,122.446 35.486,85.269 149.551,108.748 214.555,42.229 23.98,-24.212 40.23,-57.828 37.625,-92.448" style="fill:#000000;fill-opacity:1;fill-rule:nonzero;stroke:none" transform="matrix(1.3333333,0,0,-1.3333333,383.60733,199.85507)" clip-path="url(#clipPath9)"></path>
    <path id="path10" d="m 0,0 c 8.869,-57.352 49.042,-109.139 108.232,-118.925 49.679,-9.528 100.623,15.466 129.47,55.867 9.015,12.335 16.209,26.094 20.642,40.779 -4.192,-14.756 -11.174,-28.674 -20.032,-41.218 -34.554,-48.878 -95.45,-72.3 -152.629,-50.848 C 37.675,-96.562 6.824,-49.568 0,0" style="fill:#000000;fill-opacity:1;fill-rule:nonzero;stroke:none" transform="matrix(1.3333333,0,0,-1.3333333,37.7264,218.7228)" clip-path="url(#clipPath11)"></path>
    <path id="path12" d="m 0,0 c 0.554,16.028 4.821,31.845 11.456,46.406 3.413,7.263 7.52,14.181 11.813,20.952 17.556,27.272 46.31,46.193 78.421,51.079 39.58,7.194 82.537,-5.878 110.354,-35.18 16.913,-17.466 26.592,-40.36 32.011,-63.761 1.856,-7.817 2.47,-15.844 2.97,-23.829 -0.58,7.98 -1.278,15.998 -3.207,23.772 C 238.132,42.658 228.457,65.49 211.563,82.798 183.82,111.867 141.154,124.49 101.838,117.534 69.919,112.792 41.295,94.084 23.752,67.038 10.527,47.099 1.008,24.129 0,0" style="fill:#ffffff;fill-opacity:1;fill-rule:nonzero;stroke:none" transform="matrix(1.3333333,0,0,-1.3333333,49.704533,200.5444)" clip-path="url(#clipPath13)"></path>
  </g>
</svg>